<?xml version="1.0" standalone="no"?>
<!DOCTYPE svg PUBLIC "-//W3C//DTD SVG 1.1//EN" "http://www.w3.org/Graphics/SVG/1.1/DTD/svg11.dtd">
<svg t="1592664844256" class="icon" viewBox="0 0 1034 1024" version="1.1" xmlns="http://www.w3.org/2000/svg" p-id="2217" xmlns:xlink="http://www.w3.org/1999/xlink" width="201.953125" height="200">
<defs>
<style type="text/css">@font-face { font-family: element-icons; src: url("chrome-extension://moombeodfomdpjnpocobemoiaemednkg/fonts/element-icons.woff") format("woff"), url("chrome-extension://moombeodfomdpjnpocobemoiaemednkg/fonts/element-icons.ttf ") format("truetype"); }
</style>
</defs>
<path d="M1024.001267 0.125197H15.332525C-2.40788 0.125197 0.126464-2.409147 0.126464 15.331258v1008.668742h1013.737429c7.603031 0 10.137374-2.534344 10.137374-10.137374V0.125197zM362.537595 846.59595H225.683042c-20.274749 0-22.809092-5.068687-22.809092-22.809092V489.253506c0-68.427276-5.068687-136.854553-7.603031-205.281829v-22.809092c0-10.137374 5.068687-17.740405 17.740405-17.740405h10.137374c10.137374-2.534344 15.206061-7.603031 15.206062-17.740405v-10.137375c-2.534344-12.671718 2.534344-20.274749 15.206061-20.274748 35.48081-2.534344 70.96162-5.068687 106.44243-5.068687 10.137374 0 17.740405 5.068687 17.740405 17.740405 2.534344 38.015154 5.068687 78.564651 5.068687 116.579804 2.534344 32.946466 2.534344 65.892933 5.068688 101.373743 0 7.603031-2.534344 10.137374-10.137375 10.137374-50.686871 2.534344-101.373743 5.068687-149.52627 7.603031h139.388896c22.809092 0 22.809092 0 22.809092 22.809092v352.273757c-2.534344 25.343436-5.068687 27.877779-27.877779 27.877779z m48.152528-560.08993c-2.534344-25.343436-2.534344-53.221215-5.068687-78.56465 0-15.206061 5.068687-20.274749 17.740405-20.274749 55.755559-2.534344 108.976774-7.603031 162.197988-10.137374 12.671718 0 20.274749 5.068687 20.274749 17.740405 2.534344 38.015154 2.534344 73.495964 5.068687 111.511117 2.534344 35.48081 2.534344 73.495964 5.068687 108.976774 0 5.068687 0 7.603031-7.603031 7.60303-25.343436 0-50.686871 2.534344-73.495963 5.068687-7.603031 0-7.603031-2.534344-10.137374-7.60303-2.534344-38.015154-5.068687-78.564651-5.068688-116.579805 0-2.534344 0-7.603031-2.534343-10.137374-2.534344-5.068687-7.603031-7.603031-12.671718-5.068687-5.068687 2.534344-7.603031 5.068687-7.603031 12.671718 0 20.274749 2.534344 43.083841 2.534344 63.358589s2.534344 38.015154 2.534343 58.289902c0 5.068687 0 7.603031-7.60303 7.603031-22.809092 0-48.152528 2.534344-70.96162 5.068687-7.603031 0-10.137374-2.534344-12.671718-10.137374 5.068687-48.152528 2.534344-93.770712 0-139.388897z m210.350516 354.808101v182.472737c0 17.740405-5.068687 22.809092-22.809092 22.809092h-157.129301c-15.206061 0-20.274749-5.068687-20.274749-22.809092V456.30704c0-10.137374 2.534344-10.137374 10.137374-10.137375h68.427277c10.137374 0 10.137374 2.534344 10.137374 10.137375v276.243449c0 5.068687 5.068687 10.137374 10.137374 10.137374s10.137374-2.534344 10.137375-10.137374v-10.137374-263.571732c0-10.137374 2.534344-12.671718 12.671718-12.671718h68.427276c7.603031 0 10.137374 2.534344 10.137374 10.137375-2.534344 63.358589 0 124.182835 0 185.007081z m15.206062-443.510126c0-17.740405 2.534344-22.809092 20.274748-22.809092l159.663645-7.603031c12.671718 0 20.274749 5.068687 20.274749 17.740405 2.534344 55.755559 5.068687 111.511117 7.603031 164.732333 0 17.740405 2.534344 35.48081 2.534343 53.221215 0 7.603031-2.534344 7.603031-7.60303 7.60303-12.671718 0-25.343436 2.534344-38.015154 2.534344s-25.343436 0-35.48081 2.534344c-5.068687 0-7.603031-2.534344-7.603031-7.603031-2.534344-38.015154-5.068687-78.564651-5.068687-116.579805v-5.068687c0-7.603031-5.068687-12.671718-12.671718-12.671718s-10.137374 5.068687-10.137374 12.671718c0 22.809092 2.534344 43.083841 2.534344 65.892933 0 17.740405 2.534344 38.015154 2.534343 55.755559 0 5.068687 0 7.603031-7.603031 7.603031-25.343436 0-48.152528 2.534344-73.495963 5.068687-7.603031 0-10.137374-2.534344-10.137374-10.137375 0-68.427276-2.534344-141.92324-7.603031-212.88486z m215.419203 499.265684v129.251522c0 17.740405-5.068687 22.809092-20.274748 22.809092h-159.663645c-15.206061 0-20.274749-5.068687-20.274749-20.274748v-185.007081-185.007081c0-10.137374 2.534344-12.671718 12.671718-12.671718h68.427277c10.137374 0 10.137374 2.534344 10.137374 12.671718V730.016146c0 7.603031 2.534344 15.206061 10.137374 15.206061 7.603031 0 10.137374-7.603031 10.137374-15.206061v-7.603031-263.571732c0-10.137374 2.534344-12.671718 12.671718-12.671718h65.892933c10.137374 0 12.671718 2.534344 12.671718 12.671718-2.534344 78.564651-2.534344 157.129302-2.534344 238.228296z" fill="#ffffff" p-id="2218"></path></svg>