<?xml version="1.0" standalone="no"?><!DOCTYPE svg PUBLIC "-//W3C//DTD SVG 1.1//EN" "http://www.w3.org/Graphics/SVG/1.1/DTD/svg11.dtd"><svg t="1592835563682" class="icon" viewBox="0 0 1024 1024" version="1.1" xmlns="http://www.w3.org/2000/svg" p-id="2023" data-spm-anchor-id="a313x.7781069.0.i1" xmlns:xlink="http://www.w3.org/1999/xlink" width="200" height="200"><defs><style type="text/css">@font-face { font-family: element-icons; src: url("chrome-extension://moombeodfomdpjnpocobemoiaemednkg/fonts/element-icons.woff") format("woff"), url("chrome-extension://moombeodfomdpjnpocobemoiaemednkg/fonts/element-icons.ttf ") format("truetype"); }
</style></defs><path d="M676.24 111.616a40 40 0 0 1 40 40v33.552l159.744 0.016a36 36 0 0 1 36 36v655.168a36 36 0 0 1-36 36h-728A36 36 0 0 1 112 876.352V221.184a36 36 0 0 1 36-36h160.288V151.6a40 40 0 0 1 37.376-39.92l2.64-0.08a40 40 0 0 1 40 40v33.552h247.936V151.616A40 40 0 0 1 673.6 111.696z m-367.968 145.552l-124.288 0.016v583.168h656V257.184h-123.76v14.496a40 40 0 0 1-37.36 39.92l-2.624 0.08a40 40 0 0 1-40-40v-14.512H388.256v14.512a40 40 0 0 1-37.36 39.92l-2.624 0.08a40 40 0 0 1-40-40v-14.512z m320.752 189.184a40 40 0 0 1 57.776 55.328L496.224 700.688a40 40 0 0 1-57.12 0.656l-97.664-97.312a40 40 0 0 1 56.48-56.672l68.752 68.528z" fill="#ffffff" opacity=".65" p-id="2024"></path></svg>